<?xml version="1.0" encoding="utf-8"?>
<!-- Generator: Adobe Illustrator 22.1.0, SVG Export Plug-In . SVG Version: 6.00 Build 0)  -->
<svg version="1.1" id="Calque_1" xmlns="http://www.w3.org/2000/svg" xmlns:xlink="http://www.w3.org/1999/xlink" x="0px" y="0px"
	 viewBox="0 0 169.8 164.2" style="enable-background:new 0 0 169.8 164.2;" xml:space="preserve">
<style type="text/css">
	.st0{fill:#ABE65A;}
</style>
<g>
	<g>
		<path class="st0" d="M145.2,69.9c-1.1-9.2-5-17.2-11.5-23.9c-1.7-1.8-3.7-3.4-5.7-4.9c-4.1-2.9-8.6-5-13.5-6.1
			c-2.1-0.5-4.2-0.8-6.2-1c-1.5-0.1-3.1-0.2-4.7-0.1l-0.7,0c-2.7,0.1-7.8,1-7.8,1c-2.6,0.5-5.2,1.5-6,1.8c-1.1,0.4-2.2,0.9-3.3,1.6
			c-3.8,2-7.2,4.6-10.3,7.7c-0.3,0.3-0.8,0.9-1.7,1.9l-0.4,0.4L72.9,48c-0.6-0.6-1.2-1.3-1.9-2C63.2,38,53.4,33.9,42,33.9
			c-1.4,0-2.9,0.1-4.3,0.2c-0.4,0-0.7,0.1-1.1,0.2L36,34.3c-6.4,0.9-12.3,3.2-17.5,7c-2.1,1.5-3.9,3-5.5,4.7
			C6.6,52.6,2.8,60.6,1.6,69.7C1.3,72,1.1,74,1.1,75.9c0,11.7,4,21.7,11.9,29.8l20.4,21.2l1.6,1.4l32.6,33.3
			c1.6,1.6,3.6,2.5,5.7,2.5c2.1,0,4.2-0.9,5.7-2.5l21.4-21.9c1.1-0.8,2.3-1.9,3.3-3.3l30-30.7c1.8-1.9,3.5-4,5-6.2
			c0.9-1.4,1.8-2.9,2.6-4.6c2.8-5.7,4.3-12.2,4.3-19.1C145.6,74.1,145.5,72.2,145.2,69.9z M133.5,81.8c-2,0.8-4.1,3.1-4,5.4l0,0
			c-0.2,0.1-0.5,0.2-1,0.1c-1.3-0.2-2.4-1.4-3.3-3.4c-3.8-8.5-9.3-10.4-13.1-9.3c-1.3,0.3-2.2,1.2-2.6,2.5
			c-1.3,3.8,2.8,10.2,4.3,12.1c0.4,0.6,0.8,1.1,1.2,1.7c1.7,2.4,3.3,4.7,7.1,4.3c1.4-0.1,2.7-0.1,3.5,0.2l0,0l0,0
			c-0.3,0.6-2.7,6.1-7,6.6c-5.2,0.7-8.7,5.6-10.5,14.4c-1.1,5.5-3.9,13.4-7.1,17.6l-2.6,2.6c-0.1,0.1-0.2,0.2-0.4,0.2
			c-1.6,0.9-3,1-4.1,0.2c-1.4-1-2.1-3.3-1.7-5.9c0.4-2.8,0-8.9-1.1-15c-0.8-4.1-2.4-11.4-5-13.7c-0.7-0.7-1.8-1.4-3-2.2
			c-4.2-2.9-10.5-7.3-11.9-15.4C69.4,75.3,85,68.6,85.2,68.6l1.4-0.6l-0.3-1.5c-0.2-0.8-0.4-3.2,0.5-4.3c0.3-0.4,0.7-0.6,1.2-0.7
			c3.4-0.5,4.8-2.6,5.9-4.3c0.9-1.3,1.6-2.4,3.1-3.2c4.1-2.2,1.3-9.6-0.8-13.9l-0.2-0.5l-1.2-0.8c5.9-1.5,12.7-1.7,19-0.1
			c1.1,0.3,2,0.5,2.9,0.8c2.3,0.8,4.5,1.8,6.6,3c0.7,0.4,1.2,0.7,1.8,1.1c2.1,1.4,4.1,3.1,6,5c7.2,7.4,10.8,16.5,10.8,27.3
			c0,3.6-0.4,7.1-1.3,10.5l0,0c-1-1.2-1.8-2.2-2.3-3v0C137.2,81.7,135.4,81.1,133.5,81.8z M25.6,106.8L25.6,106.8
			c-2.7-1.5-6.9-4.8-6.7-7.5c0.6-5.4,1.4-13.6-4.3-16.3c-1.7-0.9-5.7-4.1-9.6-9.7l0-0.2c0.1-1.8,0.4-3.7,0.7-5.5
			C6.3,68.9,7.1,70,8,70.7c0.9,0.7,2,1.8,3.2,2.9l0.2,0.2c3.5,3.3,5.7,5.4,7.6,5.6c1.4,0.2,2.8-0.6,4.6-1.7c1.9-1.1,4.3-2.5,6.2-2
			c1.9,0.4,6.1,5.3,8.9,8.6c2.6,3.1,5.1,6,6.9,7c2.6,1.4,6.2,5.8,6.8,7.5l0,0l0,0c-0.8,0.9-1.3,2.4-1.8,3.9c-0.5,1.3-1,2.7-1.3,3.1
			l0,0c-3.8,1.1-10.6,15-10.9,16.5c-0.1,0.2-0.6,0.8-2.4,1.9l-9.3-9.7v-7.1L25.6,106.8z M22.8,110.5l-3.2-3.3c1.2,1,2.4,1.8,3.2,2.3
			L22.8,110.5z M15.2,98.9c-0.2,2.1,0.7,4,1.9,5.7l-1.4-1.5C9.3,96.6,5.7,88.7,5,79.5c2.8,3.3,5.7,5.8,7.9,6.9
			C16.3,88,15.6,94.6,15.2,98.9z M41.9,123.1c0.4-2,6.5-12.4,8.1-13.7l0.3-0.1c2.1-0.5,3-3,3.8-5.5c0.3-0.8,0.8-2.4,1-2.6
			c0.8-0.7,1.1-1.5,1-2.5c-0.3-3-5.4-8.9-8.8-10.7c-1.1-0.6-3.2-3-5.9-6.1c-4.7-5.5-8-9.1-10.9-9.8c-3.4-0.8-6.6,1.1-8.9,2.5
			c-1,0.6-1.9,1.1-2.2,1.2h0c-0.9-0.3-3.9-3.1-5.5-4.6c-1.4-1.3-2.7-2.6-3.7-3.3c-1.1-0.8-2.6-3.9-2-6.4c0.3-1.1,1-1.7,2.2-2
			c4-0.8,6.2,2.9,6.9,4.1l0.4,0.5l0.1,0.1c3.7,3.1,6.7,4.4,9.6,4.1c3.2-0.4,5.5-3,7-5.2c1.9-2.6,4.5-2.3,7.9-1.9
			c1.3,0.1,2.4,0.3,3.6,0.3c1,0,2.5-0.3,3.9-2c3-3.4,4.2-11.1,4.1-13.5l0,0c0.4-0.3,1.4-0.8,1.9-1c0.9-0.4,1.9-0.9,3-1.6
			c0.5-0.3,0.9-0.7,1.2-1.2c0.2,0.1,0.4,0.2,0.6,0.3c2.8,1.7,5.4,3.8,7.8,6.1c1.6,1.7,2.8,2.9,3.5,3.8c0.3,0.4,0.7,0.6,1.2,0.6
			c0,0,0,0,0,0c0.4,2.6,2,4.3,4.4,4.4l1.1,0.1l0.6-0.9c0.8-1.2,3-3.8,4.5-3.9c2.3-0.2,3.4-2.6,4.6-5.5c1.7-3.9,2.9-5.8,4.3-5.5
			l0.4,0.2v0c2.1,4.5,2.6,7.9,2.2,8.5l0,0c-2.3,1.3-3.5,3-4.4,4.4c-1.1,1.7-1.7,2.5-3.3,2.7c-1.6,0.2-2.9,1-3.8,2.2
			c-1.3,1.8-1.4,4.1-1.3,5.7l0,0l0,0c-4,1.9-16.9,9.1-15,19.8c1.7,9.7,9.1,14.8,13.5,17.9c1.1,0.8,2,1.4,2.6,1.9
			c2.4,2.2,6,18.7,4.9,25.3c-0.6,4,0.6,7.7,3.3,9.5c0.7,0.5,1.4,0.8,2.2,1l-17.5,17.9c-1.9,1.9-4.4,1.9-6.2,0l-31.5-32.2
			C39.9,126,41.6,124.5,41.9,123.1z M54.2,41.5c-2.1,1-4.4,2.1-4.1,4.6c0.1,1.4-1,8.4-3.3,10.9c-0.4,0.4-0.7,0.6-1,0.6
			c-1,0-2-0.1-3-0.2c-3.7-0.4-8.3-0.9-11.5,3.5c-1.7,2.4-3,3.5-4.4,3.6c-1.6,0.2-3.9-0.9-6.3-2.9l-0.2-0.2c-0.5-0.9-3.3-5.9-8.8-5.9
			c-0.5,0-0.9,0-1.4,0.1c1.5-2.5,3.3-4.9,5.4-7c6.4-6.5,14.1-10.2,23-10.9c2.7-0.2,5.1-0.2,7.9,0.1c3.4,0.4,6.7,1.2,9.9,2.6
			C55.6,40.8,54.9,41.2,54.2,41.5z M85,45.8c-0.6,1.4-1.4,3-1.5,3.3l0,0c-2.7,0.2-5.2,2.8-6.4,4.3l0,0l0,0c0-0.1-0.1-0.2-0.1-0.3
			c-0.2-0.6,0.1-2.2,0.7-3.9l0.1-0.1c0.3-0.4,0.6-0.6,1-1c0.3-0.3,0.7-0.7,1.3-1.2c2.2-2,4.5-3.6,7-5C86.2,43.1,85.6,44.4,85,45.8z
			 M138.6,92L138.6,92c-1.9,4.2-4.4,7.9-7.6,11.1l-21.8,22.3c1.1-2.9,1.9-5.8,2.4-8.4c1.4-7,3.9-11,7.3-11.4
			c5.9-0.8,9.3-7.1,10.2-9.5c0.4-1.1,0.2-2.2-0.5-3.1c-1-1.2-2.7-1.8-5.3-1.8c-0.7,0-1.3,0-1.8,0.1c-1.4,0.2-2-0.5-3.6-2.8
			c-0.4-0.5-0.8-1.2-1.3-1.8c-2.6-3.3-4.2-7.8-3.7-8.6l0,0c3-0.8,6.4,2,8.7,7.2c2.2,4.9,5.9,6.3,8.7,5.4c2-0.6,3.1-2.2,2.8-3.8
			c0-0.4,0.6-1,1-1.4c0.5-0.4,0.7-0.4,0.8-0.4l0,0c0.6,0.9,1.5,2.1,2.7,3.6c0.5,0.7,1,1.3,1.4,1.8C139,91.2,138.8,91.6,138.6,92z
			 M139.3,92.4L139.3,92.4L139.3,92.4L139.3,92.4z"/>
	</g>
	<g>
		<g>
			<path class="st0" d="M163.5,15.4c1.8-2.3,4.7-6.5,4.6-6.5c1.3-1.9,1.9-3.8,1.6-5.5c-0.2-1.1-0.8-2.1-1.6-2.7
				c-0.8-0.6-1.9-0.8-3.1-0.7c-0.1,0-0.2,0-0.3,0.1c-1.6,0.3-3.1,1.5-4.4,3.2c0,0-3.1,4.1-4.7,6.5l-15.9-0.6c-0.7,0-1.4,0.4-1.6,1.1
				l-0.8,2.6c-0.1,0.4-0.1,0.8,0.1,1.2c0.2,0.4,0.5,0.7,0.9,0.8l11.3,3.5l-4.1,6.7c-0.7-0.1-1.4-0.1-2.2,0.1c-0.5,0.1-1.2,0.3-1.8,1
				c-0.5,0.6-0.8,1.5-0.6,2.4c0.1,0.7,0.5,1.4,1,2c0.1,0.1,6,4.4,6.1,4.4c0.5,0.3,1.1,0.4,1.7,0.4c0.2,0,0.4,0,0.5,0
				c0.9-0.1,1.7-0.7,2.1-1.4c0.4-0.8,0.4-1.5,0.3-2c-0.1-0.8-0.4-1.5-0.6-2.1l5.1-5.9l6.9,9.6c0.2,0.3,0.6,0.6,1,0.6
				c0.4,0.1,0.8,0,1.2-0.3l2.2-1.6c0.6-0.4,0.8-1.2,0.6-1.8L163.5,15.4z M148.8,30.2c0.4,0.7,0.7,1.5,0.7,1.9c0,0,0,0,0,0
				c-0.2-0.1-0.5-0.4-1.2-0.9c-1.5-1.1-3.7-2.7-4.1-3c0,0,0,0,0,0c0.4-0.1,1.2,0,2,0.1c0.6,0.1,1.3-0.2,1.6-0.7l5.6-9.3
				c0.2-0.4,0.3-0.9,0.1-1.3c-0.2-0.5-0.5-0.8-1-0.9l-11.7-3.7l15.6,0.6c0.5,0,1.1-0.2,1.4-0.7c1.3-2,3.9-5.5,5.1-7.1
				c0.9-1.3,2-2,2.7-2.1c0.4-0.1,0.6,0,0.7,0.1c0.1,0.1,0.3,0.3,0.3,0.7c0.1,0.6-0.2,1.9-1.1,3.2c-0.3,0.5-3.4,4.9-5.1,7
				c-0.3,0.4-0.4,1-0.2,1.5l5.4,14.6l-7.1-9.9c-0.3-0.4-0.7-0.6-1.2-0.6c-0.5,0-0.9,0.2-1.3,0.5l-7,8.2
				C148.6,29,148.5,29.7,148.8,30.2z"/>
		</g>
		<g>
			<path class="st0" d="M27.7,134.4c-4.8,2.2-8.9,3.5-12.3,3.7l-0.7,0l0.2,3.2l0.7,0c3.8-0.2,8.3-1.6,13.5-4l0.7-0.3l-1.4-2.9
				L27.7,134.4z"/>
		</g>
		<g>
			<path class="st0" d="M3.3,121.3l0-1.4L0,120l0,1.4c0,5.6,0.9,10.1,2.6,13.4l0.4,0.7l2.9-1.5l-0.4-0.7
				C4,130.4,3.3,126.4,3.3,121.3z"/>
		</g>
		<g>
			<path class="st0" d="M50.3,120.2c-3.9,2.9-7.6,5.5-11,7.7l-0.6,0.4l1.8,2.7l0.6-0.4c3.5-2.3,7.3-4.9,11.2-7.8l0.6-0.4l-1.9-2.6
				L50.3,120.2z"/>
		</g>
		<g>
			<path class="st0" d="M71.3,103.1c-3.5,3.1-7,6-10.3,8.7l-0.6,0.5l2.1,2.5l0.6-0.5c3.3-2.7,6.8-5.7,10.4-8.8l0.6-0.5l-2.1-2.4
				L71.3,103.1z"/>
		</g>
		<g>
			<path class="st0" d="M4.5,93.6c-1.3,4.8-2.3,9.3-3,13.4l-0.1,0.7l3.2,0.6l0.1-0.7c0.7-4,1.7-8.4,3-13.1l0.2-0.7l-3.1-0.8
				L4.5,93.6z"/>
		</g>
		<g>
			<path class="st0" d="M91.3,84.8c-3.4,3.2-6.7,6.3-9.9,9.2l-0.5,0.5L83,97l0.5-0.5c3.2-3,6.6-6.1,9.9-9.3l0.5-0.5l-2.2-2.4
				L91.3,84.8z"/>
		</g>
		<g>
			<path class="st0" d="M110.6,65.9c-3.3,3.3-6.5,6.5-9.6,9.6l-0.5,0.5l2.3,2.3l0.5-0.5c3.1-3.1,6.3-6.3,9.6-9.6l0.5-0.5l-2.3-2.3
				L110.6,65.9z"/>
		</g>
		<g>
			<path class="st0" d="M125.3,50.9c-1.7,1.8-3.4,3.6-5.1,5.3l-0.5,0.5L122,59l0.5-0.5c1.7-1.7,3.4-3.5,5.1-5.3l4.9-5l-2.3-2.3
				L125.3,50.9z"/>
		</g>
		<g>
			
				<rect x="135.7" y="36" transform="matrix(0.6884 -0.7253 0.7253 0.6884 16.3495 113.2741)" class="st0" width="8.5" height="3.3"/>
		</g>
	</g>
</g>
</svg>
